<?xml version="1.0" encoding="utf-8"?>
<!-- Generator: Adobe Illustrator 24.1.0, SVG Export Plug-In . SVG Version: 6.00 Build 0)  -->
<svg version="1.1" id="Layer_1" xmlns="http://www.w3.org/2000/svg" xmlns:xlink="http://www.w3.org/1999/xlink" x="0px" y="0px"
	 viewBox="0 0 108 108" style="enable-background:new 0 0 108 108;" xml:space="preserve">
<style type="text/css">
	.st0{fill:#D50000;}
</style>
<g id="Layer_2_1_">
	<g id="Layer_1-2">
		<path class="st0" d="M108,29v-3.2H75.4V29h8.2v21.6H54V8.8c0-3,0.3-3.4,0.9-4.3c0.6-0.9,2.1-1.3,4.6-1.3h3.1V0H42v3.2h3.1
			c2.5,0,4.1,0.4,4.6,1.3c0.6,0.9,0.9,1.3,0.9,4.3V74L24.7,25.8L0,25.8v3.2h3.1c2.5,0,4.1,0.4,4.6,1.3c0.6,0.9,0.9,1.3,0.9,4.3v38.9
			c0,3-0.3,3.4-0.9,4.3c-0.6,0.9-2.1,1.3-4.6,1.3H0v3.2h20.6v-3.2h-3.1c-2.5,0-4.1-0.4-4.6-1.3c-0.6-0.9-0.9-1.3-0.9-4.3V35l38.4,73
			H54V54h29.6v25.1h-8.2v3.2H108v-3.2h-8.3V29H108z"/>
	</g>
</g>
</svg>
